<?xml version="1.0" encoding="UTF-8" standalone="no"?>
<!DOCTYPE svg PUBLIC "-//W3C//DTD SVG 1.1//EN" "http://www.w3.org/Graphics/SVG/1.1/DTD/svg11.dtd">
<svg version="1.1" xmlns="http://www.w3.org/2000/svg" xmlns:xlink="http://www.w3.org/1999/xlink" preserveAspectRatio="xMidYMid meet" viewBox="0 0 640 640" width="640" height="640"><defs><path d="M597.38 37.5C602.53 37.5 606.71 41.68 606.71 46.83C606.71 157.69 606.71 480.93 606.71 591.79C606.71 596.94 602.53 601.12 597.38 601.12C484.25 601.12 154.17 601.12 41.04 601.12C35.89 601.12 31.71 596.94 31.71 591.79C31.71 480.93 31.71 157.69 31.71 46.83C31.71 41.68 35.89 37.5 41.04 37.5C154.17 37.5 484.25 37.5 597.38 37.5Z" id="a2bWTzDcP9"></path><path d="M477.63 176.06L478.42 176.13L479.21 176.23L479.97 176.36L480.73 176.52L481.47 176.7L482.2 176.91L482.91 177.15L483.61 177.41L484.29 177.69L484.96 178L485.6 178.33L486.23 178.68L486.85 179.06L487.44 179.46L488.02 179.87L488.57 180.31L489.11 180.77L489.63 181.25L490.12 181.75L490.6 182.26L491.05 182.79L491.48 183.34L491.89 183.91L492.27 184.49L492.64 185.09L492.97 185.7L493.29 186.33L493.58 186.97L493.84 187.62L494.08 188.29L494.29 188.97L494.48 189.66L494.63 190.36L494.77 191.07L494.87 191.79L494.94 192.52L494.99 193.25L495 194L495 465L488.58 459.1L482.44 453.48L476.6 448.12L422 398L421.62 397.63L421.24 397.27L420.86 396.93L420.47 396.59L420.08 396.26L419.69 395.95L419.29 395.65L418.89 395.35L418.48 395.07L418.08 394.8L417.67 394.53L417.26 394.28L416.84 394.04L416.43 393.81L416.01 393.59L415.58 393.38L415.16 393.17L414.73 392.98L414.31 392.8L413.88 392.63L413.44 392.46L413.01 392.31L412.57 392.16L412.14 392.02L411.7 391.9L411.26 391.78L410.82 391.67L410.37 391.57L409.93 391.47L409.48 391.39L409.04 391.32L408.59 391.25L408.14 391.19L407.7 391.14L407.25 391.1L406.8 391.06L406.35 391.03L405.9 391.02L405.45 391L405 391L164 391L163.18 390.98L162.37 390.93L161.58 390.85L160.8 390.74L160.03 390.59L159.27 390.42L158.53 390.22L157.8 389.98L157.09 389.72L156.39 389.44L155.71 389.12L155.05 388.79L154.4 388.42L153.77 388.04L153.15 387.63L152.56 387.19L151.98 386.74L151.43 386.26L150.89 385.77L150.38 385.25L149.88 384.72L149.4 384.16L148.95 383.59L148.52 383.01L148.11 382.41L147.73 381.79L147.36 381.16L147.02 380.51L146.71 379.86L146.42 379.19L146.16 378.51L145.92 377.82L145.71 377.12L145.52 376.41L145.37 375.69L145.23 374.96L145.13 374.23L145.06 373.49L145.01 372.75L145 372L145 195L145.02 194.18L145.07 193.37L145.15 192.58L145.26 191.8L145.41 191.03L145.58 190.27L145.78 189.53L146.02 188.8L146.28 188.09L146.56 187.39L146.88 186.71L147.21 186.05L147.58 185.4L147.96 184.77L148.38 184.15L148.81 183.56L149.26 182.98L149.74 182.43L150.23 181.89L150.75 181.38L151.28 180.88L151.84 180.4L152.41 179.95L152.99 179.52L153.59 179.11L154.21 178.73L154.84 178.36L155.49 178.02L156.14 177.71L156.81 177.42L157.49 177.16L158.18 176.92L158.88 176.71L159.59 176.52L160.31 176.37L161.04 176.24L161.77 176.13L162.51 176.06L163.25 176.01L164 176L476 176L476.82 176.01L477.63 176.06ZM417.48 262.16L416.25 262.35L415.03 262.62L413.83 262.96L412.65 263.36L411.51 263.84L410.39 264.38L409.31 264.99L408.26 265.65L407.26 266.38L406.29 267.16L405.38 268L404.51 268.89L403.69 269.83L402.93 270.83L402.22 271.87L401.58 272.95L401 274.08L400.49 275.25L400.05 276.45L399.68 277.7L399.39 278.98L399.17 280.29L399.04 281.63L399 283L399.04 284.26L399.16 285.52L399.35 286.75L399.62 287.97L399.96 289.17L400.36 290.35L400.84 291.49L401.38 292.61L401.99 293.69L402.65 294.74L403.38 295.74L404.16 296.71L405 297.63L405.89 298.49L406.83 299.31L407.83 300.07L408.87 300.78L409.95 301.42L411.08 302L412.25 302.51L413.45 302.95L414.7 303.32L415.98 303.61L417.29 303.83L418.63 303.96L420 304L421.38 303.96L422.73 303.84L424.06 303.65L425.36 303.38L426.64 303.04L427.88 302.64L429.08 302.16L430.25 301.62L431.37 301.01L432.45 300.35L433.48 299.62L434.45 298.84L435.38 298L436.24 297.11L437.04 296.17L437.78 295.17L438.46 294.13L439.06 293.05L439.59 291.92L440.05 290.75L440.42 289.55L440.71 288.3L440.92 287.02L441.04 285.71L441.07 284.37L441 283L440.96 281.74L440.83 280.48L440.61 279.25L440.32 278.03L439.95 276.83L439.51 275.65L439 274.51L438.42 273.39L437.78 272.31L437.07 271.26L436.31 270.26L435.49 269.29L434.63 268.37L433.71 267.51L432.74 266.69L431.74 265.93L430.69 265.22L429.61 264.58L428.49 264L427.35 263.49L426.17 263.05L424.97 262.68L423.75 262.39L422.52 262.17L421.26 262.04L420 262L418.74 262.04L417.48 262.16ZM217.48 262.16L216.25 262.35L215.03 262.62L213.83 262.96L212.65 263.36L211.51 263.84L210.39 264.38L209.31 264.99L208.26 265.65L207.26 266.38L206.29 267.16L205.38 268L204.51 268.89L203.69 269.83L202.93 270.83L202.22 271.87L201.58 272.95L201 274.08L200.49 275.25L200.05 276.45L199.68 277.7L199.39 278.98L199.17 280.29L199.04 281.63L199 283L199.04 284.26L199.16 285.52L199.35 286.75L199.62 287.97L199.96 289.17L200.36 290.35L200.84 291.49L201.38 292.61L201.99 293.69L202.65 294.74L203.38 295.74L204.16 296.71L205 297.63L205.89 298.49L206.83 299.31L207.83 300.07L208.87 300.78L209.95 301.42L211.08 302L212.25 302.51L213.45 302.95L214.7 303.32L215.98 303.61L217.29 303.83L218.63 303.96L220 304L221.26 303.96L222.52 303.84L223.75 303.65L224.97 303.38L226.17 303.04L227.35 302.64L228.49 302.16L229.61 301.62L230.69 301.01L231.74 300.35L232.74 299.62L233.71 298.84L234.63 298L235.49 297.11L236.31 296.17L237.07 295.17L237.78 294.13L238.42 293.05L239 291.92L239.51 290.75L239.95 289.55L240.32 288.3L240.61 287.02L240.83 285.71L240.96 284.37L241 283L240.96 281.74L240.84 280.48L240.65 279.25L240.38 278.03L240.04 276.83L239.64 275.65L239.16 274.51L238.62 273.39L238.01 272.31L237.35 271.26L236.62 270.26L235.84 269.29L235 268.37L234.11 267.51L233.17 266.69L232.17 265.93L231.13 265.22L230.05 264.58L228.92 264L227.75 263.49L226.55 263.05L225.3 262.68L224.02 262.39L222.71 262.17L221.37 262.04L220 262L218.74 262.04L217.48 262.16ZM317.48 262.16L316.25 262.35L315.03 262.62L313.83 262.96L312.65 263.36L311.51 263.84L310.39 264.38L309.31 264.99L308.26 265.65L307.26 266.38L306.29 267.16L305.38 268L304.51 268.89L303.69 269.83L302.93 270.83L302.22 271.87L301.58 272.95L301 274.08L300.49 275.25L300.05 276.45L299.68 277.7L299.39 278.98L299.17 280.29L299.04 281.63L299 283L299.04 284.26L299.16 285.52L299.35 286.75L299.62 287.97L299.96 289.17L300.36 290.35L300.84 291.49L301.38 292.61L301.99 293.69L302.65 294.74L303.38 295.74L304.16 296.71L305 297.63L305.89 298.49L306.83 299.31L307.83 300.07L308.87 300.78L309.95 301.42L311.08 302L312.25 302.51L313.45 302.95L314.7 303.32L315.98 303.61L317.29 303.83L318.63 303.96L320 304L321.37 303.96L322.71 303.84L324.02 303.65L325.3 303.38L326.55 303.04L327.75 302.64L328.92 302.16L330.05 301.62L331.13 301.01L332.17 300.35L333.17 299.62L334.11 298.84L335 298L335.84 297.11L336.62 296.17L337.35 295.17L338.01 294.13L338.62 293.05L339.16 291.92L339.64 290.75L340.04 289.55L340.38 288.3L340.65 287.02L340.84 285.71L340.96 284.37L341 283L340.96 281.74L340.84 280.48L340.65 279.25L340.38 278.03L340.04 276.83L339.64 275.65L339.16 274.51L338.62 273.39L338.01 272.31L337.35 271.26L336.62 270.26L335.84 269.29L335 268.37L334.11 267.51L333.17 266.69L332.17 265.93L331.13 265.22L330.05 264.58L328.92 264L327.75 263.49L326.55 263.05L325.3 262.68L324.02 262.39L322.71 262.17L321.37 262.04L320 262L318.74 262.04L317.48 262.16Z" id="fOxvshfUQ"></path></defs><g><g><g><use xlink:href="#a2bWTzDcP9" opacity="1" fill="#e56353" fill-opacity="1"></use></g><g><use xlink:href="#fOxvshfUQ" opacity="1" fill="#ffffff" fill-opacity="1"></use><g><use xlink:href="#fOxvshfUQ" opacity="1" fill-opacity="0" stroke="#000000" stroke-width="1" stroke-opacity="0"></use></g></g></g></g></svg>