<?xml version="1.0" encoding="UTF-8" standalone="no"?>
<!DOCTYPE svg PUBLIC "-//W3C//DTD SVG 1.1//EN" "http://www.w3.org/Graphics/SVG/1.1/DTD/svg11.dtd">
<svg version="1.1" xmlns="http://www.w3.org/2000/svg" xmlns:xlink="http://www.w3.org/1999/xlink" preserveAspectRatio="xMidYMid meet" viewBox="0 0 640 640" width="640" height="640"><defs><path d="M561.75 70.33C566.33 70.33 570.03 74.03 570.03 78.6C570.03 176.95 570.03 463.71 570.03 562.05C570.03 566.62 566.33 570.33 561.75 570.33C463.41 570.33 176.65 570.33 78.31 570.33C73.74 570.33 70.03 566.62 70.03 562.05C70.03 463.71 70.03 176.95 70.03 78.6C70.03 74.03 73.74 70.33 78.31 70.33C176.65 70.33 463.41 70.33 561.75 70.33Z" id="baDdfRg4O"></path><path d="M477.63 193.06L478.42 193.13L479.21 193.23L479.97 193.36L480.73 193.52L481.47 193.7L482.2 193.91L482.91 194.15L483.61 194.41L484.29 194.69L484.96 195L485.6 195.33L486.23 195.68L486.85 196.06L487.44 196.46L488.02 196.87L488.57 197.31L489.11 197.77L489.63 198.25L490.12 198.75L490.6 199.26L491.05 199.79L491.48 200.34L491.89 200.91L492.27 201.49L492.64 202.09L492.97 202.7L493.29 203.33L493.58 203.97L493.84 204.62L494.08 205.29L494.29 205.97L494.48 206.66L494.63 207.36L494.77 208.07L494.87 208.79L494.94 209.52L494.99 210.25L495 211L495 482L488.58 476.1L476.6 465.12L471.06 460.02L434.26 426.26L431.64 423.84L429.3 421.7L422 415L421.62 414.63L421.24 414.27L420.86 413.93L420.47 413.59L420.08 413.26L419.69 412.95L419.29 412.65L418.89 412.35L418.48 412.07L418.08 411.8L417.67 411.53L417.26 411.28L416.84 411.04L416.43 410.81L416.01 410.59L415.58 410.38L415.16 410.17L414.73 409.98L414.31 409.8L413.88 409.63L413.44 409.46L413.01 409.31L412.57 409.16L412.14 409.02L411.7 408.9L411.26 408.78L410.82 408.67L410.37 408.57L409.93 408.47L409.48 408.39L409.04 408.32L408.59 408.25L408.14 408.19L407.7 408.14L407.25 408.1L406.8 408.06L406.35 408.03L405.9 408.02L405.45 408L405 408L164 408L163.18 407.98L162.37 407.93L161.58 407.85L160.8 407.74L160.03 407.59L159.27 407.42L158.53 407.22L157.8 406.98L157.09 406.72L156.39 406.44L155.71 406.12L155.05 405.79L154.4 405.42L153.77 405.04L153.15 404.63L152.56 404.19L151.98 403.74L151.43 403.26L150.89 402.77L150.38 402.25L149.88 401.72L149.4 401.16L148.95 400.59L148.52 400.01L148.11 399.41L147.73 398.79L147.36 398.16L147.02 397.51L146.71 396.86L146.42 396.19L146.16 395.51L145.92 394.82L145.71 394.12L145.52 393.41L145.37 392.69L145.23 391.96L145.13 391.23L145.06 390.49L145.01 389.75L145 389L145 212L145.02 211.18L145.07 210.37L145.15 209.58L145.26 208.8L145.41 208.03L145.58 207.27L145.78 206.53L146.02 205.8L146.28 205.09L146.56 204.39L146.88 203.71L147.21 203.05L147.58 202.4L147.96 201.77L148.38 201.15L148.81 200.56L149.26 199.98L149.74 199.43L150.23 198.89L150.75 198.38L151.28 197.88L151.84 197.4L152.41 196.95L152.99 196.52L153.59 196.11L154.21 195.73L154.84 195.36L155.49 195.02L156.14 194.71L156.81 194.42L157.49 194.16L158.18 193.92L158.88 193.71L159.59 193.52L160.31 193.37L161.04 193.24L161.77 193.13L162.51 193.06L163.25 193.01L164 193L476 193L476.82 193.01L477.63 193.06ZM417.48 279.16L416.25 279.35L415.03 279.62L413.83 279.96L412.65 280.36L411.51 280.84L410.39 281.38L409.31 281.99L408.26 282.65L407.26 283.38L406.29 284.16L405.38 285L404.51 285.89L403.69 286.83L402.93 287.83L402.22 288.87L401.58 289.95L401 291.08L400.49 292.25L400.05 293.45L399.68 294.7L399.39 295.98L399.17 297.29L399.04 298.63L399 300L399.04 301.26L399.16 302.52L399.35 303.75L399.62 304.97L399.96 306.17L400.36 307.35L400.84 308.49L401.38 309.61L401.99 310.69L402.65 311.74L403.38 312.74L404.16 313.71L405 314.63L405.89 315.49L406.83 316.31L407.83 317.07L408.87 317.78L409.95 318.42L411.08 319L412.25 319.51L413.45 319.95L414.7 320.32L415.98 320.61L417.29 320.83L418.63 320.96L420 321L421.38 320.96L422.73 320.84L424.06 320.65L425.36 320.38L426.64 320.04L427.88 319.64L429.08 319.16L430.25 318.62L431.37 318.01L432.45 317.35L433.48 316.62L434.45 315.84L435.38 315L436.24 314.11L437.04 313.17L437.78 312.17L438.46 311.13L439.06 310.05L439.59 308.92L440.05 307.75L440.42 306.55L440.71 305.3L440.92 304.02L441.04 302.71L441.07 301.37L441 300L440.96 298.74L440.83 297.48L440.61 296.25L440.32 295.03L439.95 293.83L439.51 292.65L439 291.51L438.42 290.39L437.78 289.31L437.07 288.26L436.31 287.26L435.49 286.29L434.63 285.37L433.71 284.51L432.74 283.69L431.74 282.93L430.69 282.22L429.61 281.58L428.49 281L427.35 280.49L426.17 280.05L424.97 279.68L423.75 279.39L422.52 279.17L421.26 279.04L420 279L418.74 279.04L417.48 279.16ZM217.48 279.16L216.25 279.35L215.03 279.62L213.83 279.96L212.65 280.36L211.51 280.84L210.39 281.38L209.31 281.99L208.26 282.65L207.26 283.38L206.29 284.16L205.38 285L204.51 285.89L203.69 286.83L202.93 287.83L202.22 288.87L201.58 289.95L201 291.08L200.49 292.25L200.05 293.45L199.68 294.7L199.39 295.98L199.17 297.29L199.04 298.63L199 300L199.04 301.26L199.16 302.52L199.35 303.75L199.62 304.97L199.96 306.17L200.36 307.35L200.84 308.49L201.38 309.61L201.99 310.69L202.65 311.74L203.38 312.74L204.16 313.71L205 314.63L205.89 315.49L206.83 316.31L207.83 317.07L208.87 317.78L209.95 318.42L211.08 319L212.25 319.51L213.45 319.95L214.7 320.32L215.98 320.61L217.29 320.83L218.63 320.96L220 321L221.26 320.96L222.52 320.84L223.75 320.65L224.97 320.38L226.17 320.04L227.35 319.64L228.49 319.16L229.61 318.62L230.69 318.01L231.74 317.35L232.74 316.62L233.71 315.84L234.63 315L235.49 314.11L236.31 313.17L237.07 312.17L237.78 311.13L238.42 310.05L239 308.92L239.51 307.75L239.95 306.55L240.32 305.3L240.61 304.02L240.83 302.71L240.96 301.37L241 300L240.96 298.74L240.84 297.48L240.65 296.25L240.38 295.03L240.04 293.83L239.64 292.65L239.16 291.51L238.62 290.39L238.01 289.31L237.35 288.26L236.62 287.26L235.84 286.29L235 285.37L234.11 284.51L233.17 283.69L232.17 282.93L231.13 282.22L230.05 281.58L228.92 281L227.75 280.49L226.55 280.05L225.3 279.68L224.02 279.39L222.71 279.17L221.37 279.04L220 279L218.74 279.04L217.48 279.16ZM317.48 279.16L316.25 279.35L315.03 279.62L313.83 279.96L312.65 280.36L311.51 280.84L310.39 281.38L309.31 281.99L308.26 282.65L307.26 283.38L306.29 284.16L305.38 285L304.51 285.89L303.69 286.83L302.93 287.83L302.22 288.87L301.58 289.95L301 291.08L300.49 292.25L300.05 293.45L299.68 294.7L299.39 295.98L299.17 297.29L299.04 298.63L299 300L299.04 301.26L299.16 302.52L299.35 303.75L299.62 304.97L299.96 306.17L300.36 307.35L300.84 308.49L301.38 309.61L301.99 310.69L302.65 311.74L303.38 312.74L304.16 313.71L305 314.63L305.89 315.49L306.83 316.31L307.83 317.07L308.87 317.78L309.95 318.42L311.08 319L312.25 319.51L313.45 319.95L314.7 320.32L315.98 320.61L317.29 320.83L318.63 320.96L320 321L321.37 320.96L322.71 320.84L324.02 320.65L325.3 320.38L326.55 320.04L327.75 319.64L328.92 319.16L330.05 318.62L331.13 318.01L332.17 317.35L333.17 316.62L334.11 315.84L335 315L335.84 314.11L336.62 313.17L337.35 312.17L338.01 311.13L338.62 310.05L339.16 308.92L339.64 307.75L340.04 306.55L340.38 305.3L340.65 304.02L340.84 302.71L340.96 301.37L341 300L340.96 298.74L340.84 297.48L340.65 296.25L340.38 295.03L340.04 293.83L339.64 292.65L339.16 291.51L338.62 290.39L338.01 289.31L337.35 288.26L336.62 287.26L335.84 286.29L335 285.37L334.11 284.51L333.17 283.69L332.17 282.93L331.13 282.22L330.05 281.58L328.92 281L327.75 280.49L326.55 280.05L325.3 279.68L324.02 279.39L322.71 279.17L321.37 279.04L320 279L318.74 279.04L317.48 279.16Z" id="b7tNXv1ve"></path></defs><g><g><g><use xlink:href="#baDdfRg4O" opacity="1" fill="#2c5989" fill-opacity="1"></use></g><g><use xlink:href="#b7tNXv1ve" opacity="1" fill="#ffffff" fill-opacity="1"></use><g><use xlink:href="#b7tNXv1ve" opacity="1" fill-opacity="0" stroke="#000000" stroke-width="1" stroke-opacity="0"></use></g></g></g></g></svg>